<mxfile host="app.diagrams.net" version="27.0.9">
  <diagram name="Page-1" id="u1hek48e8kOuFUdp4KhF">
    <mxGraphModel dx="2589" dy="1104" grid="1" gridSize="10" guides="1" tooltips="1" connect="1" arrows="1" fold="1" page="1" pageScale="1" pageWidth="827" pageHeight="1169" math="0" shadow="0">
      <root>
        <mxCell id="0" />
        <mxCell id="1" parent="0" />
        <mxCell id="DpXT_xfwtS5AnwvEueVk-1" value="ConnText Software" style="ellipse;whiteSpace=wrap;html=1;" parent="1" vertex="1">
          <mxGeometry x="340" y="40" width="120" height="80" as="geometry" />
        </mxCell>
        <mxCell id="DpXT_xfwtS5AnwvEueVk-2" value="" style="endArrow=none;html=1;rounded=0;entryX=0.5;entryY=1;entryDx=0;entryDy=0;" parent="1" target="DpXT_xfwtS5AnwvEueVk-1" edge="1">
          <mxGeometry width="50" height="50" relative="1" as="geometry">
            <mxPoint x="400" y="1040" as="sourcePoint" />
            <mxPoint x="440" y="550" as="targetPoint" />
          </mxGeometry>
        </mxCell>
        <mxCell id="DpXT_xfwtS5AnwvEueVk-3" value="User Management" style="rounded=0;whiteSpace=wrap;html=1;" parent="1" vertex="1">
          <mxGeometry x="820" y="215" width="90" height="40" as="geometry" />
        </mxCell>
        <mxCell id="DpXT_xfwtS5AnwvEueVk-4" value="" style="endArrow=none;html=1;rounded=0;entryX=0;entryY=0.5;entryDx=0;entryDy=0;" parent="1" target="DpXT_xfwtS5AnwvEueVk-3" edge="1">
          <mxGeometry width="50" height="50" relative="1" as="geometry">
            <mxPoint x="400" y="140" as="sourcePoint" />
            <mxPoint x="440" y="310" as="targetPoint" />
          </mxGeometry>
        </mxCell>
        <mxCell id="DpXT_xfwtS5AnwvEueVk-13" value="&lt;div&gt;Create Account&lt;/div&gt;" style="text;html=1;align=center;verticalAlign=middle;whiteSpace=wrap;rounded=0;" parent="1" vertex="1">
          <mxGeometry x="550" y="60" width="60" height="30" as="geometry" />
        </mxCell>
        <mxCell id="DpXT_xfwtS5AnwvEueVk-14" value="" style="endArrow=none;html=1;rounded=0;entryX=0.5;entryY=1;entryDx=0;entryDy=0;" parent="1" target="DpXT_xfwtS5AnwvEueVk-13" edge="1">
          <mxGeometry width="50" height="50" relative="1" as="geometry">
            <mxPoint x="532" y="170" as="sourcePoint" />
            <mxPoint x="580" y="160" as="targetPoint" />
          </mxGeometry>
        </mxCell>
        <mxCell id="DpXT_xfwtS5AnwvEueVk-15" value="&lt;div&gt;Log in/out&lt;/div&gt;" style="text;html=1;align=center;verticalAlign=middle;whiteSpace=wrap;rounded=0;" parent="1" vertex="1">
          <mxGeometry x="713" y="90" width="60" height="20" as="geometry" />
        </mxCell>
        <mxCell id="DpXT_xfwtS5AnwvEueVk-16" value="" style="endArrow=none;html=1;rounded=0;entryX=0.5;entryY=1;entryDx=0;entryDy=0;" parent="1" target="DpXT_xfwtS5AnwvEueVk-15" edge="1">
          <mxGeometry width="50" height="50" relative="1" as="geometry">
            <mxPoint x="701" y="208" as="sourcePoint" />
            <mxPoint x="550" y="120" as="targetPoint" />
          </mxGeometry>
        </mxCell>
        <mxCell id="DpXT_xfwtS5AnwvEueVk-17" value="&lt;div&gt;Account deletion&lt;/div&gt;" style="text;html=1;align=center;verticalAlign=middle;whiteSpace=wrap;rounded=0;" parent="1" vertex="1">
          <mxGeometry x="424" y="260" width="56" height="30" as="geometry" />
        </mxCell>
        <mxCell id="DpXT_xfwtS5AnwvEueVk-19" value="" style="endArrow=none;html=1;rounded=0;exitX=0.5;exitY=0;exitDx=0;exitDy=0;" parent="1" source="DpXT_xfwtS5AnwvEueVk-17" edge="1">
          <mxGeometry width="50" height="50" relative="1" as="geometry">
            <mxPoint x="510" y="180" as="sourcePoint" />
            <mxPoint x="470" y="156" as="targetPoint" />
          </mxGeometry>
        </mxCell>
        <mxCell id="DpXT_xfwtS5AnwvEueVk-20" value="&lt;div&gt;Manage profile&lt;/div&gt;" style="text;html=1;align=center;verticalAlign=middle;whiteSpace=wrap;rounded=0;" parent="1" vertex="1">
          <mxGeometry x="560" y="290" width="60" height="30" as="geometry" />
        </mxCell>
        <mxCell id="DpXT_xfwtS5AnwvEueVk-21" value="" style="endArrow=none;html=1;rounded=0;exitX=0.5;exitY=0;exitDx=0;exitDy=0;" parent="1" source="DpXT_xfwtS5AnwvEueVk-20" edge="1">
          <mxGeometry width="50" height="50" relative="1" as="geometry">
            <mxPoint x="510" y="240" as="sourcePoint" />
            <mxPoint x="620" y="190" as="targetPoint" />
          </mxGeometry>
        </mxCell>
        <mxCell id="DpXT_xfwtS5AnwvEueVk-24" value="Secure Communication" style="rounded=0;whiteSpace=wrap;html=1;" parent="1" vertex="1">
          <mxGeometry x="-10" y="270" width="90" height="40" as="geometry" />
        </mxCell>
        <mxCell id="DpXT_xfwtS5AnwvEueVk-26" value="" style="endArrow=none;html=1;rounded=0;exitX=1;exitY=0.5;exitDx=0;exitDy=0;" parent="1" source="DpXT_xfwtS5AnwvEueVk-24" edge="1">
          <mxGeometry width="50" height="50" relative="1" as="geometry">
            <mxPoint x="370" y="300" as="sourcePoint" />
            <mxPoint x="400" y="220" as="targetPoint" />
          </mxGeometry>
        </mxCell>
        <mxCell id="DpXT_xfwtS5AnwvEueVk-27" value="&lt;div&gt;Text messaging&lt;/div&gt;" style="text;html=1;align=center;verticalAlign=middle;whiteSpace=wrap;rounded=0;" parent="1" vertex="1">
          <mxGeometry x="130" y="130" width="70" height="40" as="geometry" />
        </mxCell>
        <mxCell id="DpXT_xfwtS5AnwvEueVk-28" value="" style="endArrow=none;html=1;rounded=0;entryX=0.5;entryY=1;entryDx=0;entryDy=0;" parent="1" target="DpXT_xfwtS5AnwvEueVk-27" edge="1">
          <mxGeometry width="50" height="50" relative="1" as="geometry">
            <mxPoint x="212" y="261" as="sourcePoint" />
            <mxPoint x="420" y="250" as="targetPoint" />
          </mxGeometry>
        </mxCell>
        <mxCell id="DpXT_xfwtS5AnwvEueVk-29" value="File sharing" style="text;html=1;align=center;verticalAlign=middle;whiteSpace=wrap;rounded=0;" parent="1" vertex="1">
          <mxGeometry x="270" y="130" width="60" height="30" as="geometry" />
        </mxCell>
        <mxCell id="DpXT_xfwtS5AnwvEueVk-30" value="" style="endArrow=none;html=1;rounded=0;entryX=0.5;entryY=1;entryDx=0;entryDy=0;" parent="1" target="DpXT_xfwtS5AnwvEueVk-29" edge="1">
          <mxGeometry width="50" height="50" relative="1" as="geometry">
            <mxPoint x="354" y="230" as="sourcePoint" />
            <mxPoint x="440" y="310" as="targetPoint" />
          </mxGeometry>
        </mxCell>
        <mxCell id="DpXT_xfwtS5AnwvEueVk-31" value="Audio/Video calls" style="text;html=1;align=center;verticalAlign=middle;whiteSpace=wrap;rounded=0;" parent="1" vertex="1">
          <mxGeometry x="260" y="330" width="60" height="30" as="geometry" />
        </mxCell>
        <mxCell id="DpXT_xfwtS5AnwvEueVk-32" value="" style="endArrow=none;html=1;rounded=0;exitX=0.5;exitY=0;exitDx=0;exitDy=0;" parent="1" source="DpXT_xfwtS5AnwvEueVk-31" edge="1">
          <mxGeometry width="50" height="50" relative="1" as="geometry">
            <mxPoint x="270" y="290" as="sourcePoint" />
            <mxPoint x="268" y="249" as="targetPoint" />
          </mxGeometry>
        </mxCell>
        <mxCell id="DpXT_xfwtS5AnwvEueVk-33" value="Team Administration" style="rounded=0;whiteSpace=wrap;html=1;" parent="1" vertex="1">
          <mxGeometry x="750" y="520" width="90" height="40" as="geometry" />
        </mxCell>
        <mxCell id="DpXT_xfwtS5AnwvEueVk-34" value="" style="endArrow=none;html=1;rounded=0;entryX=0;entryY=0.5;entryDx=0;entryDy=0;" parent="1" target="DpXT_xfwtS5AnwvEueVk-33" edge="1">
          <mxGeometry width="50" height="50" relative="1" as="geometry">
            <mxPoint x="400" y="430" as="sourcePoint" />
            <mxPoint x="460" y="390" as="targetPoint" />
          </mxGeometry>
        </mxCell>
        <mxCell id="DpXT_xfwtS5AnwvEueVk-43" value="System Admin Management" style="rounded=0;whiteSpace=wrap;html=1;" parent="1" vertex="1">
          <mxGeometry x="-10" y="560" width="90" height="40" as="geometry" />
        </mxCell>
        <mxCell id="DpXT_xfwtS5AnwvEueVk-44" value="" style="endArrow=none;html=1;rounded=0;exitX=1;exitY=0.5;exitDx=0;exitDy=0;" parent="1" source="DpXT_xfwtS5AnwvEueVk-43" edge="1">
          <mxGeometry width="50" height="50" relative="1" as="geometry">
            <mxPoint x="230" y="580" as="sourcePoint" />
            <mxPoint x="400" y="500" as="targetPoint" />
          </mxGeometry>
        </mxCell>
        <mxCell id="DpXT_xfwtS5AnwvEueVk-45" value="Server Configuration" style="text;html=1;align=center;verticalAlign=middle;whiteSpace=wrap;rounded=0;" parent="1" vertex="1">
          <mxGeometry x="270" y="380" width="80" height="40" as="geometry" />
        </mxCell>
        <mxCell id="DpXT_xfwtS5AnwvEueVk-47" value="&lt;div&gt;System Monitoring&lt;/div&gt;" style="text;html=1;align=center;verticalAlign=middle;whiteSpace=wrap;rounded=0;" parent="1" vertex="1">
          <mxGeometry x="230" y="640" width="80" height="40" as="geometry" />
        </mxCell>
        <mxCell id="DpXT_xfwtS5AnwvEueVk-48" value="System Update" style="text;html=1;align=center;verticalAlign=middle;whiteSpace=wrap;rounded=0;" parent="1" vertex="1">
          <mxGeometry x="80" y="450" width="90" height="30" as="geometry" />
        </mxCell>
        <mxCell id="DpXT_xfwtS5AnwvEueVk-49" value="" style="endArrow=none;html=1;rounded=0;exitX=0.5;exitY=1;exitDx=0;exitDy=0;" parent="1" source="DpXT_xfwtS5AnwvEueVk-45" edge="1">
          <mxGeometry width="50" height="50" relative="1" as="geometry">
            <mxPoint x="230" y="420" as="sourcePoint" />
            <mxPoint x="324" y="519" as="targetPoint" />
          </mxGeometry>
        </mxCell>
        <mxCell id="DpXT_xfwtS5AnwvEueVk-50" value="" style="endArrow=none;html=1;rounded=0;entryX=0.5;entryY=0;entryDx=0;entryDy=0;" parent="1" target="DpXT_xfwtS5AnwvEueVk-47" edge="1">
          <mxGeometry width="50" height="50" relative="1" as="geometry">
            <mxPoint x="250" y="538" as="sourcePoint" />
            <mxPoint x="300" y="510" as="targetPoint" />
          </mxGeometry>
        </mxCell>
        <mxCell id="DpXT_xfwtS5AnwvEueVk-51" value="" style="endArrow=none;html=1;rounded=0;entryX=0.5;entryY=1;entryDx=0;entryDy=0;" parent="1" target="DpXT_xfwtS5AnwvEueVk-48" edge="1">
          <mxGeometry width="50" height="50" relative="1" as="geometry">
            <mxPoint x="144" y="564" as="sourcePoint" />
            <mxPoint x="300" y="510" as="targetPoint" />
          </mxGeometry>
        </mxCell>
        <mxCell id="DpXT_xfwtS5AnwvEueVk-61" value="Member Moderation" style="text;html=1;align=center;verticalAlign=middle;whiteSpace=wrap;rounded=0;" parent="1" vertex="1">
          <mxGeometry x="440" y="620" width="80" height="40" as="geometry" />
        </mxCell>
        <mxCell id="DpXT_xfwtS5AnwvEueVk-62" value="" style="endArrow=none;html=1;rounded=0;exitX=0.5;exitY=0;exitDx=0;exitDy=0;" parent="1" source="DpXT_xfwtS5AnwvEueVk-61" edge="1">
          <mxGeometry width="50" height="50" relative="1" as="geometry">
            <mxPoint x="540" y="520" as="sourcePoint" />
            <mxPoint x="537" y="474" as="targetPoint" />
          </mxGeometry>
        </mxCell>
        <mxCell id="DpXT_xfwtS5AnwvEueVk-67" value="User Access Levels" style="text;html=1;align=center;verticalAlign=middle;whiteSpace=wrap;rounded=0;" parent="1" vertex="1">
          <mxGeometry x="640" y="370" width="90" height="35" as="geometry" />
        </mxCell>
        <mxCell id="DpXT_xfwtS5AnwvEueVk-68" value="" style="endArrow=none;html=1;rounded=0;entryX=0.5;entryY=1;entryDx=0;entryDy=0;" parent="1" target="DpXT_xfwtS5AnwvEueVk-67" edge="1">
          <mxGeometry width="50" height="50" relative="1" as="geometry">
            <mxPoint x="695" y="523" as="sourcePoint" />
            <mxPoint x="841" y="620" as="targetPoint" />
          </mxGeometry>
        </mxCell>
        <mxCell id="DpXT_xfwtS5AnwvEueVk-69" value="Channel Management" style="text;html=1;align=center;verticalAlign=middle;whiteSpace=wrap;rounded=0;" parent="1" vertex="1">
          <mxGeometry x="470" y="310" width="80" height="40" as="geometry" />
        </mxCell>
        <mxCell id="DpXT_xfwtS5AnwvEueVk-70" value="" style="endArrow=none;html=1;rounded=0;exitX=0.5;exitY=1;exitDx=0;exitDy=0;" parent="1" source="DpXT_xfwtS5AnwvEueVk-69" edge="1">
          <mxGeometry width="50" height="50" relative="1" as="geometry">
            <mxPoint x="200" y="370" as="sourcePoint" />
            <mxPoint x="491" y="459" as="targetPoint" />
          </mxGeometry>
        </mxCell>
        <mxCell id="Gf14v-9ZA6uy3wtkth3u-1" value="Kick Users" style="text;html=1;align=center;verticalAlign=middle;whiteSpace=wrap;rounded=0;" vertex="1" parent="1">
          <mxGeometry x="510" y="600" width="70" height="20" as="geometry" />
        </mxCell>
        <mxCell id="Gf14v-9ZA6uy3wtkth3u-2" value="" style="endArrow=none;html=1;rounded=0;entryX=0;entryY=0.5;entryDx=0;entryDy=0;" edge="1" parent="1" target="Gf14v-9ZA6uy3wtkth3u-1">
          <mxGeometry width="50" height="50" relative="1" as="geometry">
            <mxPoint x="492" y="591" as="sourcePoint" />
            <mxPoint x="520" y="540" as="targetPoint" />
          </mxGeometry>
        </mxCell>
        <mxCell id="Gf14v-9ZA6uy3wtkth3u-3" value="Ban Users" style="text;html=1;align=center;verticalAlign=middle;whiteSpace=wrap;rounded=0;" vertex="1" parent="1">
          <mxGeometry x="414" y="565" width="60" height="20" as="geometry" />
        </mxCell>
        <mxCell id="Gf14v-9ZA6uy3wtkth3u-4" value="" style="endArrow=none;html=1;rounded=0;entryX=1;entryY=0.5;entryDx=0;entryDy=0;" edge="1" parent="1" target="Gf14v-9ZA6uy3wtkth3u-3">
          <mxGeometry width="50" height="50" relative="1" as="geometry">
            <mxPoint x="503" y="561" as="sourcePoint" />
            <mxPoint x="530" y="520" as="targetPoint" />
          </mxGeometry>
        </mxCell>
        <mxCell id="Gf14v-9ZA6uy3wtkth3u-5" value="Role Creation" style="text;html=1;align=center;verticalAlign=middle;whiteSpace=wrap;rounded=0;" vertex="1" parent="1">
          <mxGeometry x="610" y="415" width="50" height="30" as="geometry" />
        </mxCell>
        <mxCell id="Gf14v-9ZA6uy3wtkth3u-6" value="" style="endArrow=none;html=1;rounded=0;entryX=1;entryY=0.5;entryDx=0;entryDy=0;" edge="1" parent="1" target="Gf14v-9ZA6uy3wtkth3u-5">
          <mxGeometry width="50" height="50" relative="1" as="geometry">
            <mxPoint x="687" y="427" as="sourcePoint" />
            <mxPoint x="620" y="440" as="targetPoint" />
          </mxGeometry>
        </mxCell>
        <mxCell id="Gf14v-9ZA6uy3wtkth3u-7" value="Assign User Roles" style="text;html=1;align=center;verticalAlign=middle;whiteSpace=wrap;rounded=0;" vertex="1" parent="1">
          <mxGeometry x="720" y="430" width="83" height="30" as="geometry" />
        </mxCell>
        <mxCell id="Gf14v-9ZA6uy3wtkth3u-8" value="" style="endArrow=none;html=1;rounded=0;entryX=0;entryY=0.5;entryDx=0;entryDy=0;" edge="1" parent="1" target="Gf14v-9ZA6uy3wtkth3u-7">
          <mxGeometry width="50" height="50" relative="1" as="geometry">
            <mxPoint x="688" y="445" as="sourcePoint" />
            <mxPoint x="710" y="420" as="targetPoint" />
          </mxGeometry>
        </mxCell>
        <mxCell id="Gf14v-9ZA6uy3wtkth3u-9" value="Role Deletion" style="text;html=1;align=center;verticalAlign=middle;whiteSpace=wrap;rounded=0;" vertex="1" parent="1">
          <mxGeometry x="620" y="460" width="50" height="30" as="geometry" />
        </mxCell>
        <mxCell id="Gf14v-9ZA6uy3wtkth3u-10" value="" style="endArrow=none;html=1;rounded=0;exitX=1;exitY=0.5;exitDx=0;exitDy=0;" edge="1" parent="1" source="Gf14v-9ZA6uy3wtkth3u-9">
          <mxGeometry width="50" height="50" relative="1" as="geometry">
            <mxPoint x="620" y="470" as="sourcePoint" />
            <mxPoint x="690" y="472" as="targetPoint" />
          </mxGeometry>
        </mxCell>
        <mxCell id="Gf14v-9ZA6uy3wtkth3u-11" value="Timeout Users" style="text;html=1;align=center;verticalAlign=middle;whiteSpace=wrap;rounded=0;" vertex="1" parent="1">
          <mxGeometry x="530" y="545" width="60" height="30" as="geometry" />
        </mxCell>
        <mxCell id="Gf14v-9ZA6uy3wtkth3u-12" value="" style="endArrow=none;html=1;rounded=0;entryX=0;entryY=0.5;entryDx=0;entryDy=0;" edge="1" parent="1" target="Gf14v-9ZA6uy3wtkth3u-11">
          <mxGeometry width="50" height="50" relative="1" as="geometry">
            <mxPoint x="507" y="550" as="sourcePoint" />
            <mxPoint x="580" y="490" as="targetPoint" />
          </mxGeometry>
        </mxCell>
        <mxCell id="Gf14v-9ZA6uy3wtkth3u-14" value="Create Voice/Video channel" style="text;html=1;align=center;verticalAlign=middle;whiteSpace=wrap;rounded=0;" vertex="1" parent="1">
          <mxGeometry x="540" y="350" width="80" height="30" as="geometry" />
        </mxCell>
        <mxCell id="Gf14v-9ZA6uy3wtkth3u-15" value="" style="endArrow=none;html=1;rounded=0;entryX=0;entryY=0.5;entryDx=0;entryDy=0;" edge="1" parent="1" target="Gf14v-9ZA6uy3wtkth3u-14">
          <mxGeometry width="50" height="50" relative="1" as="geometry">
            <mxPoint x="508" y="359" as="sourcePoint" />
            <mxPoint x="560" y="400" as="targetPoint" />
          </mxGeometry>
        </mxCell>
        <mxCell id="Gf14v-9ZA6uy3wtkth3u-16" value="Delete Voice/Video channel" style="text;html=1;align=center;verticalAlign=middle;whiteSpace=wrap;rounded=0;" vertex="1" parent="1">
          <mxGeometry x="410" y="350" width="80" height="30" as="geometry" />
        </mxCell>
        <mxCell id="Gf14v-9ZA6uy3wtkth3u-17" value="" style="endArrow=none;html=1;rounded=0;entryX=1;entryY=0.5;entryDx=0;entryDy=0;" edge="1" parent="1" target="Gf14v-9ZA6uy3wtkth3u-16">
          <mxGeometry width="50" height="50" relative="1" as="geometry">
            <mxPoint x="506" y="372" as="sourcePoint" />
            <mxPoint x="560" y="400" as="targetPoint" />
          </mxGeometry>
        </mxCell>
        <mxCell id="Gf14v-9ZA6uy3wtkth3u-18" value="Create Text channel" style="text;html=1;align=center;verticalAlign=middle;whiteSpace=wrap;rounded=0;" vertex="1" parent="1">
          <mxGeometry x="530" y="390" width="70" height="30" as="geometry" />
        </mxCell>
        <mxCell id="Gf14v-9ZA6uy3wtkth3u-19" value="" style="endArrow=none;html=1;rounded=0;entryX=0;entryY=0.5;entryDx=0;entryDy=0;" edge="1" parent="1" target="Gf14v-9ZA6uy3wtkth3u-18">
          <mxGeometry width="50" height="50" relative="1" as="geometry">
            <mxPoint x="503" y="391" as="sourcePoint" />
            <mxPoint x="550" y="420" as="targetPoint" />
          </mxGeometry>
        </mxCell>
        <mxCell id="Gf14v-9ZA6uy3wtkth3u-21" value="Delete Text Channel" style="text;html=1;align=center;verticalAlign=middle;whiteSpace=wrap;rounded=0;" vertex="1" parent="1">
          <mxGeometry x="414" y="390" width="70" height="30" as="geometry" />
        </mxCell>
        <mxCell id="Gf14v-9ZA6uy3wtkth3u-22" value="" style="endArrow=none;html=1;rounded=0;entryX=1;entryY=0.5;entryDx=0;entryDy=0;" edge="1" parent="1" target="Gf14v-9ZA6uy3wtkth3u-21">
          <mxGeometry width="50" height="50" relative="1" as="geometry">
            <mxPoint x="499" y="411" as="sourcePoint" />
            <mxPoint x="550" y="420" as="targetPoint" />
          </mxGeometry>
        </mxCell>
        <mxCell id="Gf14v-9ZA6uy3wtkth3u-23" value="Set Channel Permissions" style="text;html=1;align=center;verticalAlign=middle;whiteSpace=wrap;rounded=0;" vertex="1" parent="1">
          <mxGeometry x="520" y="430" width="80" height="30" as="geometry" />
        </mxCell>
        <mxCell id="Gf14v-9ZA6uy3wtkth3u-24" value="" style="endArrow=none;html=1;rounded=0;exitX=0;exitY=0.5;exitDx=0;exitDy=0;" edge="1" parent="1" source="Gf14v-9ZA6uy3wtkth3u-23">
          <mxGeometry width="50" height="50" relative="1" as="geometry">
            <mxPoint x="510" y="450" as="sourcePoint" />
            <mxPoint x="495" y="433" as="targetPoint" />
          </mxGeometry>
        </mxCell>
        <mxCell id="Gf14v-9ZA6uy3wtkth3u-25" value="Manage Individual Permissions" style="text;html=1;align=center;verticalAlign=middle;whiteSpace=wrap;rounded=0;" vertex="1" parent="1">
          <mxGeometry x="730" y="470" width="110" height="30" as="geometry" />
        </mxCell>
        <mxCell id="Gf14v-9ZA6uy3wtkth3u-26" value="" style="endArrow=none;html=1;rounded=0;entryX=0;entryY=0.5;entryDx=0;entryDy=0;" edge="1" parent="1" target="Gf14v-9ZA6uy3wtkth3u-25">
          <mxGeometry width="50" height="50" relative="1" as="geometry">
            <mxPoint x="693" y="497" as="sourcePoint" />
            <mxPoint x="620" y="420" as="targetPoint" />
          </mxGeometry>
        </mxCell>
        <mxCell id="Gf14v-9ZA6uy3wtkth3u-27" value="Team Settings" style="text;html=1;align=center;verticalAlign=middle;whiteSpace=wrap;rounded=0;" vertex="1" parent="1">
          <mxGeometry x="610" y="650" width="80" height="20" as="geometry" />
        </mxCell>
        <mxCell id="Gf14v-9ZA6uy3wtkth3u-28" value="" style="endArrow=none;html=1;rounded=0;exitX=0.5;exitY=0;exitDx=0;exitDy=0;" edge="1" parent="1" source="Gf14v-9ZA6uy3wtkth3u-27">
          <mxGeometry width="50" height="50" relative="1" as="geometry">
            <mxPoint x="620" y="540" as="sourcePoint" />
            <mxPoint x="720" y="531" as="targetPoint" />
          </mxGeometry>
        </mxCell>
        <mxCell id="Gf14v-9ZA6uy3wtkth3u-29" value="Team Name" style="text;html=1;align=center;verticalAlign=middle;whiteSpace=wrap;rounded=0;" vertex="1" parent="1">
          <mxGeometry x="730" y="575" width="80" height="20" as="geometry" />
        </mxCell>
        <mxCell id="Gf14v-9ZA6uy3wtkth3u-30" value="" style="endArrow=none;html=1;rounded=0;entryX=0;entryY=0.5;entryDx=0;entryDy=0;" edge="1" parent="1" target="Gf14v-9ZA6uy3wtkth3u-29">
          <mxGeometry width="50" height="50" relative="1" as="geometry">
            <mxPoint x="696" y="572" as="sourcePoint" />
            <mxPoint x="670" y="500" as="targetPoint" />
          </mxGeometry>
        </mxCell>
        <mxCell id="Gf14v-9ZA6uy3wtkth3u-31" value="Team Invite Permission" style="text;html=1;align=center;verticalAlign=middle;whiteSpace=wrap;rounded=0;" vertex="1" parent="1">
          <mxGeometry x="620" y="527.5" width="70" height="25" as="geometry" />
        </mxCell>
        <mxCell id="Gf14v-9ZA6uy3wtkth3u-32" value="" style="endArrow=none;html=1;rounded=0;entryX=1;entryY=0.5;entryDx=0;entryDy=0;" edge="1" parent="1" target="Gf14v-9ZA6uy3wtkth3u-31">
          <mxGeometry width="50" height="50" relative="1" as="geometry">
            <mxPoint x="712" y="544" as="sourcePoint" />
            <mxPoint x="680" y="570" as="targetPoint" />
          </mxGeometry>
        </mxCell>
        <mxCell id="Gf14v-9ZA6uy3wtkth3u-33" value="Data Retention Policy" style="text;html=1;align=center;verticalAlign=middle;whiteSpace=wrap;rounded=0;" vertex="1" parent="1">
          <mxGeometry x="580" y="575" width="90" height="25" as="geometry" />
        </mxCell>
        <mxCell id="Gf14v-9ZA6uy3wtkth3u-34" value="" style="endArrow=none;html=1;rounded=0;exitX=1;exitY=0.5;exitDx=0;exitDy=0;" edge="1" parent="1" source="Gf14v-9ZA6uy3wtkth3u-33">
          <mxGeometry width="50" height="50" relative="1" as="geometry">
            <mxPoint x="650" y="610" as="sourcePoint" />
            <mxPoint x="687" y="587" as="targetPoint" />
          </mxGeometry>
        </mxCell>
        <mxCell id="Gf14v-9ZA6uy3wtkth3u-35" value="Manage Authentication Requirements" style="text;html=1;align=center;verticalAlign=middle;whiteSpace=wrap;rounded=0;" vertex="1" parent="1">
          <mxGeometry x="710" y="600" width="100" height="50" as="geometry" />
        </mxCell>
        <mxCell id="Gf14v-9ZA6uy3wtkth3u-36" value="" style="endArrow=none;html=1;rounded=0;entryX=0;entryY=0.5;entryDx=0;entryDy=0;" edge="1" parent="1" target="Gf14v-9ZA6uy3wtkth3u-35">
          <mxGeometry width="50" height="50" relative="1" as="geometry">
            <mxPoint x="673" y="611" as="sourcePoint" />
            <mxPoint x="740" y="560" as="targetPoint" />
          </mxGeometry>
        </mxCell>
        <mxCell id="Gf14v-9ZA6uy3wtkth3u-37" value="Add Users" style="text;html=1;align=center;verticalAlign=middle;whiteSpace=wrap;rounded=0;" vertex="1" parent="1">
          <mxGeometry x="440" y="507.5" width="60" height="20" as="geometry" />
        </mxCell>
        <mxCell id="Gf14v-9ZA6uy3wtkth3u-38" value="" style="endArrow=none;html=1;rounded=0;entryX=1;entryY=0.5;entryDx=0;entryDy=0;" edge="1" parent="1" target="Gf14v-9ZA6uy3wtkth3u-37">
          <mxGeometry width="50" height="50" relative="1" as="geometry">
            <mxPoint x="518" y="522" as="sourcePoint" />
            <mxPoint x="590" y="530" as="targetPoint" />
          </mxGeometry>
        </mxCell>
        <mxCell id="Gf14v-9ZA6uy3wtkth3u-39" value="Delete Users" style="text;html=1;align=center;verticalAlign=middle;whiteSpace=wrap;rounded=0;" vertex="1" parent="1">
          <mxGeometry x="540" y="500" width="60" height="27.5" as="geometry" />
        </mxCell>
        <mxCell id="Gf14v-9ZA6uy3wtkth3u-40" value="" style="endArrow=none;html=1;rounded=0;entryX=0;entryY=0.5;entryDx=0;entryDy=0;" edge="1" parent="1" target="Gf14v-9ZA6uy3wtkth3u-39">
          <mxGeometry width="50" height="50" relative="1" as="geometry">
            <mxPoint x="526" y="502" as="sourcePoint" />
            <mxPoint x="580" y="500" as="targetPoint" />
          </mxGeometry>
        </mxCell>
        <mxCell id="Gf14v-9ZA6uy3wtkth3u-41" value="User Access Management" style="rounded=0;whiteSpace=wrap;html=1;" vertex="1" parent="1">
          <mxGeometry x="-10" y="880" width="90" height="40" as="geometry" />
        </mxCell>
        <mxCell id="Gf14v-9ZA6uy3wtkth3u-42" value="" style="endArrow=none;html=1;rounded=0;exitX=1;exitY=0.5;exitDx=0;exitDy=0;" edge="1" parent="1" source="Gf14v-9ZA6uy3wtkth3u-41">
          <mxGeometry width="50" height="50" relative="1" as="geometry">
            <mxPoint x="380" y="820" as="sourcePoint" />
            <mxPoint x="400" y="775" as="targetPoint" />
          </mxGeometry>
        </mxCell>
      </root>
    </mxGraphModel>
  </diagram>
</mxfile>
